<svg xmlns="http://www.w3.org/2000/svg" width="1200" height="780" viewBox="0 0 1200 780">
<rect width="1200" height="780" fill="#F7FAFD"/>
<text x="48" y="60" font-family="Inter,Arial" font-size="26" font-weight="850" fill="#10203A">Changer un flexible de douche</text>
<g transform="translate(105,95) scale(.72)"><rect x="230" y="180" width="300" height="60" rx="28" fill="#B8C2CE" stroke="#4E5A69" stroke-width="6"/><rect x="250" y="160" width="40" height="30" rx="0" fill="#D6DDE6" stroke="#4E5A69" stroke-width="4"/><rect x="470" y="160" width="40" height="30" rx="0" fill="#D6DDE6" stroke="#4E5A69" stroke-width="4"/><polygon points="402.0,262.0 391.0,281.1 369.0,281.1 358.0,262.0 369.0,242.9 391.0,242.9" fill="#B8C2CE" stroke="#4E5A69" stroke-width="4"/><ellipse cx="380" cy="300" rx="26" ry="7" fill="#3A4350" stroke="#4E5A69" stroke-width="2"/><path d="M380 320 C380 520 600 560 620 400 C630 330 620 300 600 290" fill="none" stroke="#B8C2CE" stroke-width="16"/><path d="M380 320 C380 520 600 560 620 400 C630 330 620 300 600 290" fill="none" stroke="#4E5A69" stroke-width="2" stroke-dasharray="4 6"/><ellipse cx="600" cy="262" rx="26" ry="7" fill="#3A4350" stroke="#4E5A69" stroke-width="2"/><polygon points="622.0,236.0 611.0,255.1 589.0,255.1 578.0,236.0 589.0,216.9 611.0,216.9" fill="#B8C2CE" stroke="#4E5A69" stroke-width="4"/><rect x="585" y="140" width="30" height="80" rx="12" fill="#EEF2F6" stroke="#4E5A69" stroke-width="6"/><circle cx="600" cy="140" r="44" fill="#EEF2F6" stroke="#4E5A69" stroke-width="6"/><line x1="600" y1="236" x2="95" y2="170" stroke="#0B78E3" stroke-width="4" stroke-linecap="round"/><circle cx="600" cy="236" r="9" fill="#fff" stroke="#0B78E3" stroke-width="4"/><circle cx="95" cy="170" r="24" fill="#fff" stroke="#0B78E3" stroke-width="4"/><text x="95" y="177" text-anchor="middle" font-family="Inter,Arial" font-size="20" font-weight="800" fill="#0B78E3">1</text><text x="129" y="177" font-family="Inter,Arial" font-size="20" font-weight="650" fill="#0F1E36">Écrou côté pommeau</text><line x1="380" y1="262" x2="95" y2="278" stroke="#0B78E3" stroke-width="4" stroke-linecap="round"/><circle cx="380" cy="262" r="9" fill="#fff" stroke="#0B78E3" stroke-width="4"/><circle cx="95" cy="278" r="24" fill="#fff" stroke="#0B78E3" stroke-width="4"/><text x="95" y="285" text-anchor="middle" font-family="Inter,Arial" font-size="20" font-weight="800" fill="#0B78E3">2</text><text x="129" y="285" font-family="Inter,Arial" font-size="20" font-weight="650" fill="#0F1E36">Écrou côté mitigeur</text><line x1="600" y1="262" x2="95" y2="385" stroke="#0B78E3" stroke-width="4" stroke-linecap="round"/><circle cx="600" cy="262" r="9" fill="#fff" stroke="#0B78E3" stroke-width="4"/><circle cx="95" cy="385" r="24" fill="#fff" stroke="#0B78E3" stroke-width="4"/><text x="95" y="392" text-anchor="middle" font-family="Inter,Arial" font-size="20" font-weight="800" fill="#0B78E3">3</text><text x="129" y="392" font-family="Inter,Arial" font-size="20" font-weight="650" fill="#0F1E36">Joint plat (côté pommeau)</text><line x1="380" y1="300" x2="95" y2="493" stroke="#0B78E3" stroke-width="4" stroke-linecap="round"/><circle cx="380" cy="300" r="9" fill="#fff" stroke="#0B78E3" stroke-width="4"/><circle cx="95" cy="493" r="24" fill="#fff" stroke="#0B78E3" stroke-width="4"/><text x="95" y="500" text-anchor="middle" font-family="Inter,Arial" font-size="20" font-weight="800" fill="#0B78E3">4</text><text x="129" y="500" font-family="Inter,Arial" font-size="20" font-weight="650" fill="#0F1E36">Joint plat</text><line x1="500" y1="520" x2="95" y2="600" stroke="#0B78E3" stroke-width="4" stroke-linecap="round"/><circle cx="500" cy="520" r="9" fill="#fff" stroke="#0B78E3" stroke-width="4"/><circle cx="95" cy="600" r="24" fill="#fff" stroke="#0B78E3" stroke-width="4"/><text x="95" y="607" text-anchor="middle" font-family="Inter,Arial" font-size="20" font-weight="800" fill="#0B78E3">5</text><text x="129" y="607" font-family="Inter,Arial" font-size="20" font-weight="650" fill="#0F1E36">Flexible</text></g>
</svg>
