<svg xmlns="http://www.w3.org/2000/svg" width="1200" height="780" viewBox="0 0 1200 780">
<rect width="1200" height="780" fill="#F7FAFD"/>
<text x="48" y="60" font-family="Inter,Arial" font-size="26" font-weight="850" fill="#10203A">Déboucher des toilettes</text>
<g transform="translate(105,95) scale(.72)"><path d="M250 220 L640 220 L600 360 Q560 440 470 450 L430 450 Q330 440 290 360 Z" fill="#EEF2F6" stroke="#4E5A69" stroke-width="6"/><path d="M318 360 L572 360 Q545 430 470 438 L430 438 Q350 430 318 360 Z" fill="#CFE6F7" stroke="none" stroke-width="0"/><path d="M450 450 L450 520 Q450 560 500 560 L520 560 Q560 560 560 520 L560 480 Q560 450 600 450 L680 450" fill="none" stroke="#4E5A69" stroke-width="42"/><path d="M450 450 L450 520 Q450 560 500 560 L520 560 Q560 560 560 520 L560 480 Q560 450 600 450 L680 450" fill="none" stroke="#B8C2CE" stroke-width="34"/><ellipse cx="560" cy="500" rx="22" ry="28" fill="#F2B45C" stroke="#B86A0A" stroke-width="4"/><line x1="450" y1="130" x2="450" y2="380" stroke="#B86A0A" stroke-width="12" stroke-linecap="round"/><path d="M390 400 Q450 340 510 400 Z" fill="#D64545" stroke="#8E2323" stroke-width="4"/><rect x="432" y="398" width="36" height="40" rx="6" fill="#D64545" stroke="#8E2323" stroke-width="4"/><line x1="600" y1="260" x2="95" y2="170" stroke="#0B78E3" stroke-width="4" stroke-linecap="round"/><circle cx="600" cy="260" r="9" fill="#fff" stroke="#0B78E3" stroke-width="4"/><circle cx="95" cy="170" r="24" fill="#fff" stroke="#0B78E3" stroke-width="4"/><text x="95" y="177" text-anchor="middle" font-family="Inter,Arial" font-size="20" font-weight="800" fill="#0B78E3">1</text><text x="129" y="177" font-family="Inter,Arial" font-size="20" font-weight="650" fill="#0F1E36">Cuvette</text><line x1="340" y1="365" x2="95" y2="278" stroke="#0B78E3" stroke-width="4" stroke-linecap="round"/><circle cx="340" cy="365" r="9" fill="#fff" stroke="#0B78E3" stroke-width="4"/><circle cx="95" cy="278" r="24" fill="#fff" stroke="#0B78E3" stroke-width="4"/><text x="95" y="285" text-anchor="middle" font-family="Inter,Arial" font-size="20" font-weight="800" fill="#0B78E3">2</text><text x="129" y="285" font-family="Inter,Arial" font-size="20" font-weight="650" fill="#0F1E36">Niveau d'eau</text><line x1="450" y1="410" x2="95" y2="385" stroke="#0B78E3" stroke-width="4" stroke-linecap="round"/><circle cx="450" cy="410" r="9" fill="#fff" stroke="#0B78E3" stroke-width="4"/><circle cx="95" cy="385" r="24" fill="#fff" stroke="#0B78E3" stroke-width="4"/><text x="95" y="392" text-anchor="middle" font-family="Inter,Arial" font-size="20" font-weight="800" fill="#0B78E3">3</text><text x="129" y="392" font-family="Inter,Arial" font-size="20" font-weight="650" fill="#0F1E36">Ventouse à collerette</text><line x1="560" y1="500" x2="95" y2="493" stroke="#0B78E3" stroke-width="4" stroke-linecap="round"/><circle cx="560" cy="500" r="9" fill="#fff" stroke="#0B78E3" stroke-width="4"/><circle cx="95" cy="493" r="24" fill="#fff" stroke="#0B78E3" stroke-width="4"/><text x="95" y="500" text-anchor="middle" font-family="Inter,Arial" font-size="20" font-weight="800" fill="#0B78E3">4</text><text x="129" y="500" font-family="Inter,Arial" font-size="20" font-weight="650" fill="#0F1E36">Bouchon</text><line x1="500" y1="560" x2="95" y2="600" stroke="#0B78E3" stroke-width="4" stroke-linecap="round"/><circle cx="500" cy="560" r="9" fill="#fff" stroke="#0B78E3" stroke-width="4"/><circle cx="95" cy="600" r="24" fill="#fff" stroke="#0B78E3" stroke-width="4"/><text x="95" y="607" text-anchor="middle" font-family="Inter,Arial" font-size="20" font-weight="800" fill="#0B78E3">5</text><text x="129" y="607" font-family="Inter,Arial" font-size="20" font-weight="650" fill="#0F1E36">Siphon</text></g>
</svg>
