<svg xmlns="http://www.w3.org/2000/svg" width="1200" height="780" viewBox="0 0 1200 780">
<rect width="1200" height="780" fill="#F7FAFD"/>
<text x="48" y="60" font-family="Inter,Arial" font-size="26" font-weight="850" fill="#10203A">Robot tondeuse : nettoyage, lames et hivernage</text>
<g transform="translate(105,95) scale(.72)"><ellipse cx="440" cy="370" rx="230" ry="170" fill="#EEF2F6" stroke="#4E5A69" stroke-width="6"/><circle cx="440" cy="390" r="80" fill="#D6DDE6" stroke="#4E5A69" stroke-width="6"/><rect x="494" y="383" width="32" height="14" rx="3" fill="#F2B45C" stroke="#B86A0A" stroke-width="3"/><rect x="389" y="443.6217782649107" width="32" height="14" rx="3" fill="#F2B45C" stroke="#B86A0A" stroke-width="3"/><rect x="389" y="322.3782217350893" width="32" height="14" rx="3" fill="#F2B45C" stroke="#B86A0A" stroke-width="3"/><circle cx="440" cy="390" r="12" fill="#B8C2CE" stroke="#4E5A69" stroke-width="4"/><line x1="433.4" y1="390" x2="446.6" y2="390" stroke="#4E5A69" stroke-width="3" stroke-linecap="round"/><line x1="440" y1="383.4" x2="440" y2="396.6" stroke="#4E5A69" stroke-width="3" stroke-linecap="round"/><rect x="220" y="300" width="46" height="120" rx="16" fill="#3A4350" stroke="#4E5A69" stroke-width="6"/><rect x="614" y="300" width="46" height="120" rx="16" fill="#3A4350" stroke="#4E5A69" stroke-width="6"/><circle cx="440" cy="225" r="18" fill="#3A4350" stroke="#4E5A69" stroke-width="6"/><rect x="390" y="520" width="30" height="12" rx="0" fill="#B8C2CE" stroke="#4E5A69" stroke-width="2"/><rect x="460" y="520" width="30" height="12" rx="0" fill="#B8C2CE" stroke="#4E5A69" stroke-width="2"/><line x1="440" y1="225" x2="95" y2="170" stroke="#0B78E3" stroke-width="4" stroke-linecap="round"/><circle cx="440" cy="225" r="9" fill="#fff" stroke="#0B78E3" stroke-width="4"/><circle cx="95" cy="170" r="24" fill="#fff" stroke="#0B78E3" stroke-width="4"/><text x="95" y="177" text-anchor="middle" font-family="Inter,Arial" font-size="20" font-weight="800" fill="#0B78E3">1</text><text x="129" y="177" font-family="Inter,Arial" font-size="20" font-weight="650" fill="#0F1E36">Roulette avant</text><line x1="440" y1="350" x2="95" y2="278" stroke="#0B78E3" stroke-width="4" stroke-linecap="round"/><circle cx="440" cy="350" r="9" fill="#fff" stroke="#0B78E3" stroke-width="4"/><circle cx="95" cy="278" r="24" fill="#fff" stroke="#0B78E3" stroke-width="4"/><text x="95" y="285" text-anchor="middle" font-family="Inter,Arial" font-size="20" font-weight="800" fill="#0B78E3">2</text><text x="129" y="285" font-family="Inter,Arial" font-size="20" font-weight="650" fill="#0F1E36">Disque porte-lames</text><line x1="637" y1="360" x2="95" y2="385" stroke="#0B78E3" stroke-width="4" stroke-linecap="round"/><circle cx="637" cy="360" r="9" fill="#fff" stroke="#0B78E3" stroke-width="4"/><circle cx="95" cy="385" r="24" fill="#fff" stroke="#0B78E3" stroke-width="4"/><text x="95" y="392" text-anchor="middle" font-family="Inter,Arial" font-size="20" font-weight="800" fill="#0B78E3">3</text><text x="129" y="392" font-family="Inter,Arial" font-size="20" font-weight="650" fill="#0F1E36">Roue motrice</text><line x1="510" y1="390" x2="95" y2="493" stroke="#0B78E3" stroke-width="4" stroke-linecap="round"/><circle cx="510" cy="390" r="9" fill="#fff" stroke="#0B78E3" stroke-width="4"/><circle cx="95" cy="493" r="24" fill="#fff" stroke="#0B78E3" stroke-width="4"/><text x="95" y="500" text-anchor="middle" font-family="Inter,Arial" font-size="20" font-weight="800" fill="#0B78E3">4</text><text x="129" y="500" font-family="Inter,Arial" font-size="20" font-weight="650" fill="#0F1E36">Petite lame pivotante</text><line x1="405" y1="526" x2="95" y2="600" stroke="#0B78E3" stroke-width="4" stroke-linecap="round"/><circle cx="405" cy="526" r="9" fill="#fff" stroke="#0B78E3" stroke-width="4"/><circle cx="95" cy="600" r="24" fill="#fff" stroke="#0B78E3" stroke-width="4"/><text x="95" y="607" text-anchor="middle" font-family="Inter,Arial" font-size="20" font-weight="800" fill="#0B78E3">5</text><text x="129" y="607" font-family="Inter,Arial" font-size="20" font-weight="650" fill="#0F1E36">Contacts de charge</text></g>
</svg>
