<svg xmlns="http://www.w3.org/2000/svg" width="1200" height="780" viewBox="0 0 1200 780">
<rect width="1200" height="780" fill="#F7FAFD"/>
<text x="48" y="60" font-family="Inter,Arial" font-size="26" font-weight="850" fill="#10203A">Piscine : pH, chlore et filtration au quotidien</text>
<g transform="translate(105,95) scale(.72)"><path d="M220 230 L220 420 Q220 470 270 470 L520 470 Q560 470 560 420 L560 230" fill="#CFE6F7" stroke="#4E5A69" stroke-width="6"/><rect x="226" y="230" width="328" height="30" rx="0" fill="#FFFFFF" stroke="none" stroke-width="0"/><rect x="214" y="250" width="46" height="50" rx="6" fill="#D6DDE6" stroke="#4E5A69" stroke-width="4"/><line x1="229" y1="266" x2="229" y2="288" stroke="#4E5A69" stroke-width="1" stroke-linecap="round"/><line x1="238" y1="266" x2="238" y2="288" stroke="#4E5A69" stroke-width="1" stroke-linecap="round"/><line x1="224" y1="271" x2="250" y2="271" stroke="#4E5A69" stroke-width="1" stroke-linecap="round"/><line x1="224" y1="280" x2="250" y2="280" stroke="#4E5A69" stroke-width="1" stroke-linecap="round"/><circle cx="560" cy="380" r="12" fill="#3A4350" stroke="#4E5A69" stroke-width="3"/><path d="M240 300 L240 540 L420 540" fill="none" stroke="#4E5A69" stroke-width="20"/><path d="M240 300 L240 540 L420 540" fill="none" stroke="#B8C2CE" stroke-width="12"/><rect x="420" y="510" width="90" height="60" rx="14" fill="#D6DDE6" stroke="#4E5A69" stroke-width="6"/><rect x="430" y="488" width="50" height="26" rx="6" fill="#FFFFFF" stroke="#4E5A69" stroke-width="4"/><rect x="560" y="470" width="90" height="130" rx="40" fill="#EEF2F6" stroke="#4E5A69" stroke-width="6"/><path d="M510 540 L560 540" fill="none" stroke="#4E5A69" stroke-width="20"/><path d="M510 540 L560 540" fill="none" stroke="#B8C2CE" stroke-width="12"/><path d="M605 470 L605 380 L572 380" fill="none" stroke="#4E5A69" stroke-width="20"/><path d="M605 470 L605 380 L572 380" fill="none" stroke="#B8C2CE" stroke-width="12"/><rect x="600" y="170" width="100" height="80" rx="10" fill="#FFFFFF" stroke="#4E5A69" stroke-width="4"/><rect x="615" y="185" width="16" height="50" rx="6" fill="#F2D24B" stroke="#4E5A69" stroke-width="2"/><rect x="642" y="185" width="16" height="50" rx="6" fill="#E05BA8" stroke="#4E5A69" stroke-width="2"/><line x1="650" y1="200" x2="95" y2="170" stroke="#0B78E3" stroke-width="4" stroke-linecap="round"/><circle cx="650" cy="200" r="9" fill="#fff" stroke="#0B78E3" stroke-width="4"/><circle cx="95" cy="170" r="24" fill="#fff" stroke="#0B78E3" stroke-width="4"/><text x="95" y="177" text-anchor="middle" font-family="Inter,Arial" font-size="20" font-weight="800" fill="#0B78E3">1</text><text x="129" y="177" font-family="Inter,Arial" font-size="20" font-weight="650" fill="#0F1E36">Trousse d'analyse (pH 7,2 à 7,6 ; chlore)</text><line x1="237" y1="275" x2="95" y2="278" stroke="#0B78E3" stroke-width="4" stroke-linecap="round"/><circle cx="237" cy="275" r="9" fill="#fff" stroke="#0B78E3" stroke-width="4"/><circle cx="95" cy="278" r="24" fill="#fff" stroke="#0B78E3" stroke-width="4"/><text x="95" y="285" text-anchor="middle" font-family="Inter,Arial" font-size="20" font-weight="800" fill="#0B78E3">2</text><text x="129" y="285" font-family="Inter,Arial" font-size="20" font-weight="650" fill="#0F1E36">Skimmer et son panier</text><line x1="560" y1="380" x2="95" y2="385" stroke="#0B78E3" stroke-width="4" stroke-linecap="round"/><circle cx="560" cy="380" r="9" fill="#fff" stroke="#0B78E3" stroke-width="4"/><circle cx="95" cy="385" r="24" fill="#fff" stroke="#0B78E3" stroke-width="4"/><text x="95" y="392" text-anchor="middle" font-family="Inter,Arial" font-size="20" font-weight="800" fill="#0B78E3">3</text><text x="129" y="392" font-family="Inter,Arial" font-size="20" font-weight="650" fill="#0F1E36">Refoulement</text><line x1="455" y1="520" x2="95" y2="493" stroke="#0B78E3" stroke-width="4" stroke-linecap="round"/><circle cx="455" cy="520" r="9" fill="#fff" stroke="#0B78E3" stroke-width="4"/><circle cx="95" cy="493" r="24" fill="#fff" stroke="#0B78E3" stroke-width="4"/><text x="95" y="500" text-anchor="middle" font-family="Inter,Arial" font-size="20" font-weight="800" fill="#0B78E3">4</text><text x="129" y="500" font-family="Inter,Arial" font-size="20" font-weight="650" fill="#0F1E36">Pompe et préfiltre</text><line x1="605" y1="535" x2="95" y2="600" stroke="#0B78E3" stroke-width="4" stroke-linecap="round"/><circle cx="605" cy="535" r="9" fill="#fff" stroke="#0B78E3" stroke-width="4"/><circle cx="95" cy="600" r="24" fill="#fff" stroke="#0B78E3" stroke-width="4"/><text x="95" y="607" text-anchor="middle" font-family="Inter,Arial" font-size="20" font-weight="800" fill="#0B78E3">5</text><text x="129" y="607" font-family="Inter,Arial" font-size="20" font-weight="650" fill="#0F1E36">Filtre</text></g>
</svg>
