<svg xmlns="http://www.w3.org/2000/svg" width="1200" height="780" viewBox="0 0 1200 780">
<rect width="1200" height="780" fill="#F7FAFD"/>
<text x="48" y="60" font-family="Inter,Arial" font-size="26" font-weight="850" fill="#10203A">Changer le filtre d'habitacle (filtre à pollen)</text>
<g transform="translate(105,95) scale(.72)"><path d="M210 180 L700 180 L700 270 L210 270 Z" fill="#D6DDE6" stroke="#4E5A69" stroke-width="6"/><rect x="290" y="270" width="330" height="190" rx="0" fill="#3A4350" stroke="#252B33" stroke-width="6"/><path d="M300 520 L610 520 L590 600 L320 600 Z" fill="#EEF2F6" stroke="#4E5A69" stroke-width="6" stroke-dasharray="14 10"/><rect x="350" y="310" width="220" height="44" rx="6" fill="#B8C2CE" stroke="#4E5A69" stroke-width="5"/><rect x="570" y="306" width="26" height="52" rx="4" fill="#D6DDE6" stroke="#4E5A69" stroke-width="4"/><rect x="350" y="380" width="220" height="60" rx="4" fill="#FFFFFF" stroke="#4E5A69" stroke-width="5"/><path d="M360 440 L370 384 L390 440 L410 384 L430 440 L450 384 L470 440 L490 384 L510 440 L530 384 L550 440" fill="none" stroke="#4E5A69" stroke-width="3"/><line x1="460" y1="390" x2="460" y2="420.8" stroke="#1F5FD6" stroke-width="5" stroke-linecap="round"/><polygon points="460,432 466.1,419.4 453.9,419.4" fill="#1F5FD6" stroke="#1F5FD6" stroke-width="2"/><line x1="583" y1="320" x2="95" y2="170" stroke="#0B78E3" stroke-width="4" stroke-linecap="round"/><circle cx="583" cy="320" r="9" fill="#fff" stroke="#0B78E3" stroke-width="4"/><circle cx="95" cy="170" r="24" fill="#fff" stroke="#0B78E3" stroke-width="4"/><text x="95" y="177" text-anchor="middle" font-family="Inter,Arial" font-size="20" font-weight="800" fill="#0B78E3">1</text><text x="129" y="177" font-family="Inter,Arial" font-size="20" font-weight="650" fill="#0F1E36">Trappe</text><line x1="460" y1="332" x2="95" y2="278" stroke="#0B78E3" stroke-width="4" stroke-linecap="round"/><circle cx="460" cy="332" r="9" fill="#fff" stroke="#0B78E3" stroke-width="4"/><circle cx="95" cy="278" r="24" fill="#fff" stroke="#0B78E3" stroke-width="4"/><text x="95" y="285" text-anchor="middle" font-family="Inter,Arial" font-size="20" font-weight="800" fill="#0B78E3">2</text><text x="129" y="285" font-family="Inter,Arial" font-size="20" font-weight="650" fill="#0F1E36">Logement du filtre</text><line x1="460" y1="410" x2="95" y2="385" stroke="#0B78E3" stroke-width="4" stroke-linecap="round"/><circle cx="460" cy="410" r="9" fill="#fff" stroke="#0B78E3" stroke-width="4"/><circle cx="95" cy="385" r="24" fill="#fff" stroke="#0B78E3" stroke-width="4"/><text x="95" y="392" text-anchor="middle" font-family="Inter,Arial" font-size="20" font-weight="800" fill="#0B78E3">3</text><text x="129" y="392" font-family="Inter,Arial" font-size="20" font-weight="650" fill="#0F1E36">Flèche : sens de l'air</text><line x1="395" y1="420" x2="95" y2="493" stroke="#0B78E3" stroke-width="4" stroke-linecap="round"/><circle cx="395" cy="420" r="9" fill="#fff" stroke="#0B78E3" stroke-width="4"/><circle cx="95" cy="493" r="24" fill="#fff" stroke="#0B78E3" stroke-width="4"/><text x="95" y="500" text-anchor="middle" font-family="Inter,Arial" font-size="20" font-weight="800" fill="#0B78E3">4</text><text x="129" y="500" font-family="Inter,Arial" font-size="20" font-weight="650" fill="#0F1E36">Filtre à pollen</text><line x1="455" y1="560" x2="95" y2="600" stroke="#0B78E3" stroke-width="4" stroke-linecap="round"/><circle cx="455" cy="560" r="9" fill="#fff" stroke="#0B78E3" stroke-width="4"/><circle cx="95" cy="600" r="24" fill="#fff" stroke="#0B78E3" stroke-width="4"/><text x="95" y="607" text-anchor="middle" font-family="Inter,Arial" font-size="20" font-weight="800" fill="#0B78E3">5</text><text x="129" y="607" font-family="Inter,Arial" font-size="20" font-weight="650" fill="#0F1E36">Boîte à gants déposée</text></g>
</svg>
