<svg xmlns="http://www.w3.org/2000/svg" width="1200" height="780" viewBox="0 0 1200 780">
<rect width="1200" height="780" fill="#F7FAFD"/>
<text x="48" y="60" font-family="Inter,Arial" font-size="26" font-weight="850" fill="#10203A">Nettoyer une trancheuse électrique sans se couper</text>
<g transform="translate(105,95) scale(.72)"><rect x="240" y="460" width="460" height="90" rx="18" fill="#D6DDE6" stroke="#4E5A69" stroke-width="6"/><circle cx="420" cy="330" r="140" fill="#B8C2CE" stroke="#4E5A69" stroke-width="6"/><circle cx="420" cy="330" r="40" fill="#D6DDE6" stroke="#4E5A69" stroke-width="5"/><path d="M290 260 A150 150 0 0 1 560 280" fill="none" stroke="#4E5A69" stroke-width="18"/><path d="M560 300 L700 280 L700 460 L570 460 Z" fill="#EEF2F6" stroke="#4E5A69" stroke-width="6"/><line x1="600" y1="330" x2="680" y2="320" stroke="#B8C2CE" stroke-width="6" stroke-linecap="round"/><circle cx="275" cy="505" r="30" fill="#FFFFFF" stroke="#4E5A69" stroke-width="5"/><line x1="275" y1="505" x2="275" y2="480" stroke="#D64545" stroke-width="5" stroke-linecap="round"/><rect x="480" y="560" width="46" height="60" rx="8" fill="#FFFFFF" stroke="#4E5A69" stroke-width="4"/><circle cx="495" cy="590" r="5" fill="#3A4350" stroke="#4E5A69" stroke-width="0"/><circle cx="511" cy="590" r="5" fill="#3A4350" stroke="#4E5A69" stroke-width="0"/><rect x="550" y="574" width="44" height="32" rx="8" fill="#FFFFFF" stroke="#4E5A69" stroke-width="4"/><line x1="550" y1="584" x2="536" y2="584" stroke="#4E5A69" stroke-width="4" stroke-linecap="round"/><line x1="550" y1="596" x2="536" y2="596" stroke="#4E5A69" stroke-width="4" stroke-linecap="round"/><path d="M594 590 C630 590 630 630 670 630" fill="none" stroke="#4E5A69" stroke-width="5"/><line x1="420" y1="182" x2="95" y2="170" stroke="#0B78E3" stroke-width="4" stroke-linecap="round"/><circle cx="420" cy="182" r="9" fill="#fff" stroke="#0B78E3" stroke-width="4"/><circle cx="95" cy="170" r="24" fill="#fff" stroke="#0B78E3" stroke-width="4"/><text x="95" y="177" text-anchor="middle" font-family="Inter,Arial" font-size="20" font-weight="800" fill="#0B78E3">1</text><text x="129" y="177" font-family="Inter,Arial" font-size="20" font-weight="650" fill="#0F1E36">Protège-lame</text><line x1="360" y1="380" x2="95" y2="278" stroke="#0B78E3" stroke-width="4" stroke-linecap="round"/><circle cx="360" cy="380" r="9" fill="#fff" stroke="#0B78E3" stroke-width="4"/><circle cx="95" cy="278" r="24" fill="#fff" stroke="#0B78E3" stroke-width="4"/><text x="95" y="285" text-anchor="middle" font-family="Inter,Arial" font-size="20" font-weight="800" fill="#0B78E3">2</text><text x="129" y="285" font-family="Inter,Arial" font-size="20" font-weight="650" fill="#0F1E36">Lame circulaire</text><line x1="640" y1="400" x2="95" y2="385" stroke="#0B78E3" stroke-width="4" stroke-linecap="round"/><circle cx="640" cy="400" r="9" fill="#fff" stroke="#0B78E3" stroke-width="4"/><circle cx="95" cy="385" r="24" fill="#fff" stroke="#0B78E3" stroke-width="4"/><text x="95" y="392" text-anchor="middle" font-family="Inter,Arial" font-size="20" font-weight="800" fill="#0B78E3">3</text><text x="129" y="392" font-family="Inter,Arial" font-size="20" font-weight="650" fill="#0F1E36">Chariot</text><line x1="275" y1="505" x2="95" y2="493" stroke="#0B78E3" stroke-width="4" stroke-linecap="round"/><circle cx="275" cy="505" r="9" fill="#fff" stroke="#0B78E3" stroke-width="4"/><circle cx="95" cy="493" r="24" fill="#fff" stroke="#0B78E3" stroke-width="4"/><text x="95" y="500" text-anchor="middle" font-family="Inter,Arial" font-size="20" font-weight="800" fill="#0B78E3">4</text><text x="129" y="500" font-family="Inter,Arial" font-size="20" font-weight="650" fill="#0F1E36">Molette d'épaisseur sur zéro</text><line x1="503" y1="590" x2="95" y2="600" stroke="#0B78E3" stroke-width="4" stroke-linecap="round"/><circle cx="503" cy="590" r="9" fill="#fff" stroke="#0B78E3" stroke-width="4"/><circle cx="95" cy="600" r="24" fill="#fff" stroke="#0B78E3" stroke-width="4"/><text x="95" y="607" text-anchor="middle" font-family="Inter,Arial" font-size="20" font-weight="800" fill="#0B78E3">5</text><text x="129" y="607" font-family="Inter,Arial" font-size="20" font-weight="650" fill="#0F1E36">Prise débranchée</text></g>
</svg>
