<svg xmlns="http://www.w3.org/2000/svg" width="1200" height="780" viewBox="0 0 1200 780">
<rect width="1200" height="780" fill="#F7FAFD"/>
<text x="48" y="60" font-family="Inter,Arial" font-size="26" font-weight="850" fill="#10203A">Nettoyer un écran de télé ou d'ordinateur sans l'abîmer</text>
<g transform="translate(105,95) scale(.72)"><rect x="230" y="160" width="460" height="280" rx="10" fill="#3A4350" stroke="#252B33" stroke-width="6"/><rect x="246" y="176" width="428" height="248" rx="0" fill="#2B313A" stroke="#4E5A69" stroke-width="0"/><rect x="430" y="440" width="60" height="50" rx="0" fill="#D6DDE6" stroke="#4E5A69" stroke-width="4"/><rect x="360" y="488" width="200" height="18" rx="8" fill="#D6DDE6" stroke="#4E5A69" stroke-width="4"/><path d="M300 230 L430 240 L420 340 L306 332 Z" fill="#F2B45C" stroke="#B86A0A" stroke-width="4"/><line x1="440" y1="300" x2="498.8" y2="300" stroke="#1F5FD6" stroke-width="5" stroke-linecap="round"/><polygon points="510,300 497.4,293.9 497.4,306.1" fill="#1F5FD6" stroke="#1F5FD6" stroke-width="2"/><rect x="600" y="500" width="60" height="100" rx="12" fill="#EEF2F6" stroke="#4E5A69" stroke-width="6"/><rect x="612" y="476" width="36" height="26" rx="0" fill="#D6DDE6" stroke="#4E5A69" stroke-width="3"/><line x1="612" y1="482" x2="580" y2="470" stroke="#4E5A69" stroke-width="5" stroke-linecap="round"/><line x1="542" y1="452" x2="578" y2="488" stroke="#D64545" stroke-width="8" stroke-linecap="round"/><line x1="542" y1="488" x2="578" y2="452" stroke="#D64545" stroke-width="8" stroke-linecap="round"/><line x1="600" y1="220" x2="95" y2="170" stroke="#0B78E3" stroke-width="4" stroke-linecap="round"/><circle cx="600" cy="220" r="9" fill="#fff" stroke="#0B78E3" stroke-width="4"/><circle cx="95" cy="170" r="24" fill="#fff" stroke="#0B78E3" stroke-width="4"/><text x="95" y="177" text-anchor="middle" font-family="Inter,Arial" font-size="20" font-weight="800" fill="#0B78E3">1</text><text x="129" y="177" font-family="Inter,Arial" font-size="20" font-weight="650" fill="#0F1E36">Écran éteint et débranché</text><line x1="360" y1="285" x2="95" y2="385" stroke="#0B78E3" stroke-width="4" stroke-linecap="round"/><circle cx="360" cy="285" r="9" fill="#fff" stroke="#0B78E3" stroke-width="4"/><circle cx="95" cy="385" r="24" fill="#fff" stroke="#0B78E3" stroke-width="4"/><text x="95" y="392" text-anchor="middle" font-family="Inter,Arial" font-size="20" font-weight="800" fill="#0B78E3">2</text><text x="129" y="392" font-family="Inter,Arial" font-size="20" font-weight="650" fill="#0F1E36">Chiffon microfibre sec, puis à peine humide</text><line x1="630" y1="550" x2="95" y2="600" stroke="#0B78E3" stroke-width="4" stroke-linecap="round"/><circle cx="630" cy="550" r="9" fill="#fff" stroke="#0B78E3" stroke-width="4"/><circle cx="95" cy="600" r="24" fill="#fff" stroke="#0B78E3" stroke-width="4"/><text x="95" y="607" text-anchor="middle" font-family="Inter,Arial" font-size="20" font-weight="800" fill="#0B78E3">3</text><text x="129" y="607" font-family="Inter,Arial" font-size="20" font-weight="650" fill="#0F1E36">Ne pulvérisez jamais sur l'écran</text></g>
</svg>
