<svg xmlns="http://www.w3.org/2000/svg" width="1200" height="780" viewBox="0 0 1200 780">
<rect width="1200" height="780" fill="#F7FAFD"/>
<text x="48" y="60" font-family="Inter,Arial" font-size="26" font-weight="850" fill="#10203A">Nettoyer une plaque vitrocéramique ou à induction</text>
<g transform="translate(105,95) scale(.72)"><rect x="230" y="180" width="460" height="400" rx="18" fill="#3A4350" stroke="#252B33" stroke-width="6"/><circle cx="340" cy="290" r="70" fill="none" stroke="#8C96A3" stroke-width="5"/><circle cx="560" cy="290" r="55" fill="none" stroke="#8C96A3" stroke-width="5"/><circle cx="330" cy="480" r="55" fill="none" stroke="#8C96A3" stroke-width="5"/><circle cx="560" cy="470" r="80" fill="none" stroke="#8C96A3" stroke-width="5"/><ellipse cx="545" cy="455" rx="26" ry="14" fill="#8A5A1E" stroke="none" stroke-width="0"/><path d="M575 460 L625 425 L700 520 L655 548 Z" fill="#F2B45C" stroke="#B86A0A" stroke-width="4"/><line x1="568" y1="470" x2="590" y2="446" stroke="#B8C2CE" stroke-width="6" stroke-linecap="round"/><line x1="340" y1="220" x2="95" y2="170" stroke="#0B78E3" stroke-width="4" stroke-linecap="round"/><circle cx="340" cy="220" r="9" fill="#fff" stroke="#0B78E3" stroke-width="4"/><circle cx="95" cy="170" r="24" fill="#fff" stroke="#0B78E3" stroke-width="4"/><text x="95" y="177" text-anchor="middle" font-family="Inter,Arial" font-size="20" font-weight="800" fill="#0B78E3">1</text><text x="129" y="177" font-family="Inter,Arial" font-size="20" font-weight="650" fill="#0F1E36">Foyer</text><line x1="540" y1="455" x2="95" y2="385" stroke="#0B78E3" stroke-width="4" stroke-linecap="round"/><circle cx="540" cy="455" r="9" fill="#fff" stroke="#0B78E3" stroke-width="4"/><circle cx="95" cy="385" r="24" fill="#fff" stroke="#0B78E3" stroke-width="4"/><text x="95" y="392" text-anchor="middle" font-family="Inter,Arial" font-size="20" font-weight="800" fill="#0B78E3">2</text><text x="129" y="392" font-family="Inter,Arial" font-size="20" font-weight="650" fill="#0F1E36">Résidus cuits</text><line x1="640" y1="485" x2="95" y2="600" stroke="#0B78E3" stroke-width="4" stroke-linecap="round"/><circle cx="640" cy="485" r="9" fill="#fff" stroke="#0B78E3" stroke-width="4"/><circle cx="95" cy="600" r="24" fill="#fff" stroke="#0B78E3" stroke-width="4"/><text x="95" y="607" text-anchor="middle" font-family="Inter,Arial" font-size="20" font-weight="800" fill="#0B78E3">3</text><text x="129" y="607" font-family="Inter,Arial" font-size="20" font-weight="650" fill="#0F1E36">Grattoir à lame, tenu incliné</text></g>
</svg>
