<svg xmlns="http://www.w3.org/2000/svg" viewBox="52 125 610 520" width="610" height="520"><title>Schéma de principe : Amorcer une pompe de surface ou d'arrosage</title><rect x="300" y="280" width="140" height="130" rx="20" fill="#EEF2F6" stroke="#4E5A69" stroke-width="6"/><rect x="440" y="290" width="200" height="110" rx="30" fill="#D6DDE6" stroke="#4E5A69" stroke-width="6"/><line x1="470" y1="300" x2="470" y2="390" stroke="#B8C2CE" stroke-width="3" stroke-linecap="round"/><line x1="500" y1="300" x2="500" y2="390" stroke="#B8C2CE" stroke-width="3" stroke-linecap="round"/><line x1="530" y1="300" x2="530" y2="390" stroke="#B8C2CE" stroke-width="3" stroke-linecap="round"/><line x1="560" y1="300" x2="560" y2="390" stroke="#B8C2CE" stroke-width="3" stroke-linecap="round"/><line x1="590" y1="300" x2="590" y2="390" stroke="#B8C2CE" stroke-width="3" stroke-linecap="round"/><rect x="350" y="252" width="40" height="30" rx="6" fill="#F2B45C" stroke="#B86A0A" stroke-width="4"/><path d="M370 280 L370 230 L300 230 L300 160" fill="none" stroke="#4E5A69" stroke-width="24"/><path d="M370 280 L370 230 L300 230 L300 160" fill="none" stroke="#B8C2CE" stroke-width="16"/><path d="M300 360 L240 360 L240 560" fill="none" stroke="#4E5A69" stroke-width="24"/><path d="M300 360 L240 360 L240 560" fill="none" stroke="#B8C2CE" stroke-width="16"/><rect x="224" y="556" width="32" height="40" rx="6" fill="#3A4350" stroke="#4E5A69" stroke-width="3"/><rect x="190" y="520" width="140" height="90" rx="0" fill="#CFE6F7" stroke="none" stroke-width="0" fill-opacity=".7"/><line x1="300" y1="180" x2="97" y2="170" stroke="#1F5FD6" stroke-width="4" stroke-linecap="round"/><circle cx="300" cy="180" r="8" fill="#fff" stroke="#1F5FD6" stroke-width="4"/><circle cx="97" cy="170" r="23" fill="#fff" stroke="#1F5FD6" stroke-width="4"/><text x="97" y="178" text-anchor="middle" font-family="Inter, 'Segoe UI', Roboto, Helvetica, Arial, sans-serif" font-size="23" font-weight="800" fill="#1F5FD6">1</text><line x1="370" y1="262" x2="97" y2="256" stroke="#1F5FD6" stroke-width="4" stroke-linecap="round"/><circle cx="370" cy="262" r="8" fill="#fff" stroke="#1F5FD6" stroke-width="4"/><circle cx="97" cy="256" r="23" fill="#fff" stroke="#1F5FD6" stroke-width="4"/><text x="97" y="264" text-anchor="middle" font-family="Inter, 'Segoe UI', Roboto, Helvetica, Arial, sans-serif" font-size="23" font-weight="800" fill="#1F5FD6">2</text><line x1="370" y1="345" x2="97" y2="342" stroke="#1F5FD6" stroke-width="4" stroke-linecap="round"/><circle cx="370" cy="345" r="8" fill="#fff" stroke="#1F5FD6" stroke-width="4"/><circle cx="97" cy="342" r="23" fill="#fff" stroke="#1F5FD6" stroke-width="4"/><text x="97" y="350" text-anchor="middle" font-family="Inter, 'Segoe UI', Roboto, Helvetica, Arial, sans-serif" font-size="23" font-weight="800" fill="#1F5FD6">3</text><line x1="560" y1="345" x2="97" y2="428" stroke="#1F5FD6" stroke-width="4" stroke-linecap="round"/><circle cx="560" cy="345" r="8" fill="#fff" stroke="#1F5FD6" stroke-width="4"/><circle cx="97" cy="428" r="23" fill="#fff" stroke="#1F5FD6" stroke-width="4"/><text x="97" y="436" text-anchor="middle" font-family="Inter, 'Segoe UI', Roboto, Helvetica, Arial, sans-serif" font-size="23" font-weight="800" fill="#1F5FD6">4</text><line x1="240" y1="460" x2="97" y2="514" stroke="#1F5FD6" stroke-width="4" stroke-linecap="round"/><circle cx="240" cy="460" r="8" fill="#fff" stroke="#1F5FD6" stroke-width="4"/><circle cx="97" cy="514" r="23" fill="#fff" stroke="#1F5FD6" stroke-width="4"/><text x="97" y="522" text-anchor="middle" font-family="Inter, 'Segoe UI', Roboto, Helvetica, Arial, sans-serif" font-size="23" font-weight="800" fill="#1F5FD6">5</text><line x1="240" y1="576" x2="97" y2="600" stroke="#1F5FD6" stroke-width="4" stroke-linecap="round"/><circle cx="240" cy="576" r="8" fill="#fff" stroke="#1F5FD6" stroke-width="4"/><circle cx="97" cy="600" r="23" fill="#fff" stroke="#1F5FD6" stroke-width="4"/><text x="97" y="608" text-anchor="middle" font-family="Inter, 'Segoe UI', Roboto, Helvetica, Arial, sans-serif" font-size="23" font-weight="800" fill="#1F5FD6">6</text></svg>
