<svg xmlns="http://www.w3.org/2000/svg" viewBox="62 98 670 468" width="670" height="468"><title>Schéma de principe : Changer une roue crevée</title><line x1="200" y1="500" x2="710" y2="500" stroke="#4E5A69" stroke-width="5" stroke-linecap="round"/><path d="M230 420 L248 350 Q300 320 380 310 L470 255 Q530 240 590 255 L660 310 Q695 320 700 350 L705 420 Z" fill="#EEF2F6" stroke="#4E5A69" stroke-width="6"/><circle cx="310" cy="440" r="58" fill="#3A4350" stroke="#252B33" stroke-width="6"/><circle cx="310" cy="440" r="37.12" fill="#B8C2CE" stroke="#4E5A69" stroke-width="6"/><circle cx="310" cy="440" r="11.600000000000001" fill="#D6DDE6" stroke="#4E5A69" stroke-width="5"/><circle cx="330.88" cy="440" r="3.19" fill="#3A4350" stroke="#4E5A69" stroke-width="3"/><circle cx="316.4522748425489" cy="459.8580600602428" r="3.19" fill="#3A4350" stroke="#4E5A69" stroke-width="3"/><circle cx="293.1077251574511" cy="452.27295606786686" r="3.19" fill="#3A4350" stroke="#4E5A69" stroke-width="3"/><circle cx="293.1077251574511" cy="427.72704393213314" r="3.19" fill="#3A4350" stroke="#4E5A69" stroke-width="3"/><circle cx="316.4522748425489" cy="420.1419399397572" r="3.19" fill="#3A4350" stroke="#4E5A69" stroke-width="3"/><circle cx="620" cy="440" r="58" fill="#3A4350" stroke="#252B33" stroke-width="6"/><circle cx="620" cy="440" r="37.12" fill="#B8C2CE" stroke="#4E5A69" stroke-width="6"/><circle cx="620" cy="440" r="11.600000000000001" fill="#D6DDE6" stroke="#4E5A69" stroke-width="5"/><circle cx="640.88" cy="440" r="3.19" fill="#3A4350" stroke="#4E5A69" stroke-width="3"/><circle cx="626.452274842549" cy="459.8580600602428" r="3.19" fill="#3A4350" stroke="#4E5A69" stroke-width="3"/><circle cx="603.1077251574511" cy="452.27295606786686" r="3.19" fill="#3A4350" stroke="#4E5A69" stroke-width="3"/><circle cx="603.1077251574511" cy="427.72704393213314" r="3.19" fill="#3A4350" stroke="#4E5A69" stroke-width="3"/><circle cx="626.452274842549" cy="420.1419399397572" r="3.19" fill="#3A4350" stroke="#4E5A69" stroke-width="3"/><rect x="512" y="414" width="30" height="10" rx="0" fill="#F2B45C" stroke="#B86A0A" stroke-width="3"/><path d="M527 424 L552 460 L527 492 L502 460 Z" fill="none" stroke="#4E5A69" stroke-width="6"/><rect x="495" y="490" width="64" height="10" rx="0" fill="#4E5A69" stroke="#4E5A69" stroke-width="2"/><circle cx="330" cy="190" r="70" fill="#B8C2CE" stroke="#4E5A69" stroke-width="5"/><circle cx="330" cy="145" r="11" fill="#F2B45C" stroke="#B86A0A" stroke-width="3"/><circle cx="372.7975432332819" cy="176.09423525312738" r="11" fill="#3A4350" stroke="#4E5A69" stroke-width="3"/><circle cx="356.4503363531613" cy="226.40576474687265" r="11" fill="#3A4350" stroke="#4E5A69" stroke-width="3"/><circle cx="303.5496636468387" cy="226.40576474687265" r="11" fill="#3A4350" stroke="#4E5A69" stroke-width="3"/><circle cx="287.2024567667181" cy="176.09423525312735" r="11" fill="#3A4350" stroke="#4E5A69" stroke-width="3"/><polygon points="330.0,145.0 356.5,226.4 287.2,176.1 372.8,176.1 303.5,226.4" fill="none" stroke="#1F5FD6" stroke-width="3"/><line x1="330" y1="145" x2="107" y2="170" stroke="#1F5FD6" stroke-width="4" stroke-linecap="round"/><circle cx="330" cy="145" r="8" fill="#fff" stroke="#1F5FD6" stroke-width="4"/><circle cx="107" cy="170" r="23" fill="#fff" stroke="#1F5FD6" stroke-width="4"/><text x="107" y="178" text-anchor="middle" font-family="Inter, 'Segoe UI', Roboto, Helvetica, Arial, sans-serif" font-size="23" font-weight="800" fill="#1F5FD6">1</text><line x1="620" y1="410" x2="107" y2="313" stroke="#1F5FD6" stroke-width="4" stroke-linecap="round"/><circle cx="620" cy="410" r="8" fill="#fff" stroke="#1F5FD6" stroke-width="4"/><circle cx="107" cy="313" r="23" fill="#fff" stroke="#1F5FD6" stroke-width="4"/><text x="107" y="321" text-anchor="middle" font-family="Inter, 'Segoe UI', Roboto, Helvetica, Arial, sans-serif" font-size="23" font-weight="800" fill="#1F5FD6">2</text><line x1="527" y1="418" x2="107" y2="457" stroke="#1F5FD6" stroke-width="4" stroke-linecap="round"/><circle cx="527" cy="418" r="8" fill="#fff" stroke="#1F5FD6" stroke-width="4"/><circle cx="107" cy="457" r="23" fill="#fff" stroke="#1F5FD6" stroke-width="4"/><text x="107" y="465" text-anchor="middle" font-family="Inter, 'Segoe UI', Roboto, Helvetica, Arial, sans-serif" font-size="23" font-weight="800" fill="#1F5FD6">3</text><line x1="540" y1="470" x2="107" y2="521" stroke="#1F5FD6" stroke-width="4" stroke-linecap="round"/><circle cx="540" cy="470" r="8" fill="#fff" stroke="#1F5FD6" stroke-width="4"/><circle cx="107" cy="521" r="23" fill="#fff" stroke="#1F5FD6" stroke-width="4"/><text x="107" y="529" text-anchor="middle" font-family="Inter, 'Segoe UI', Roboto, Helvetica, Arial, sans-serif" font-size="23" font-weight="800" fill="#1F5FD6">4</text></svg>
