<svg xmlns="http://www.w3.org/2000/svg" viewBox="92 125 603 520" width="603" height="520"><title>Schéma de principe : Réfrigérateur qui givre : vérifier le joint</title><rect x="230" y="160" width="200" height="450" rx="16" fill="#EEF2F6" stroke="#4E5A69" stroke-width="6"/><rect x="246" y="180" width="168" height="410" rx="0" fill="#FFFFFF" stroke="#4E5A69" stroke-width="3"/><line x1="246" y1="330" x2="414" y2="330" stroke="#B8C2CE" stroke-width="6" stroke-linecap="round"/><line x1="246" y1="450" x2="414" y2="450" stroke="#B8C2CE" stroke-width="6" stroke-linecap="round"/><path d="M430 160 L530 190 L530 580 L430 610 Z" fill="#EEF2F6" stroke="#4E5A69" stroke-width="5"/><path d="M442 180 L518 203 L518 567 L442 590 Z" fill="none" stroke="#7D8794" stroke-width="12"/><rect x="565" y="260" width="40" height="220" rx="0" fill="#D6DDE6" stroke="#4E5A69" stroke-width="4"/><rect x="633" y="260" width="40" height="220" rx="0" fill="#EEF2F6" stroke="#4E5A69" stroke-width="4"/><rect x="605" y="260" width="28" height="220" rx="0" fill="#7D8794" stroke="#4E5A69" stroke-width="3"/><rect x="609" y="210" width="20" height="150" rx="0" fill="#FFFFFF" stroke="#4E5A69" stroke-width="3"/><line x1="619" y1="205" x2="619" y2="161.2" stroke="#1F5FD6" stroke-width="5" stroke-linecap="round"/><polygon points="619,150 612.9,162.6 625.1,162.6" fill="#1F5FD6" stroke="#1F5FD6" stroke-width="2"/><line x1="619" y1="230" x2="137" y2="170" stroke="#1F5FD6" stroke-width="4" stroke-linecap="round"/><circle cx="619" cy="230" r="8" fill="#fff" stroke="#1F5FD6" stroke-width="4"/><circle cx="137" cy="170" r="23" fill="#fff" stroke="#1F5FD6" stroke-width="4"/><text x="137" y="178" text-anchor="middle" font-family="Inter, 'Segoe UI', Roboto, Helvetica, Arial, sans-serif" font-size="23" font-weight="800" fill="#1F5FD6">1</text><line x1="480" y1="280" x2="137" y2="385" stroke="#1F5FD6" stroke-width="4" stroke-linecap="round"/><circle cx="480" cy="280" r="8" fill="#fff" stroke="#1F5FD6" stroke-width="4"/><circle cx="137" cy="385" r="23" fill="#fff" stroke="#1F5FD6" stroke-width="4"/><text x="137" y="393" text-anchor="middle" font-family="Inter, 'Segoe UI', Roboto, Helvetica, Arial, sans-serif" font-size="23" font-weight="800" fill="#1F5FD6">2</text><line x1="518" y1="380" x2="137" y2="600" stroke="#1F5FD6" stroke-width="4" stroke-linecap="round"/><circle cx="518" cy="380" r="8" fill="#fff" stroke="#1F5FD6" stroke-width="4"/><circle cx="137" cy="600" r="23" fill="#fff" stroke="#1F5FD6" stroke-width="4"/><text x="137" y="608" text-anchor="middle" font-family="Inter, 'Segoe UI', Roboto, Helvetica, Arial, sans-serif" font-size="23" font-weight="800" fill="#1F5FD6">3</text></svg>
