<svg xmlns="http://www.w3.org/2000/svg" viewBox="92 165 670 401" width="670" height="401"><title>Schéma de principe : Mettre à jour les cartes d'un GPS voiture</title><rect x="230" y="300" width="170" height="120" rx="14" fill="#3A4350" stroke="#4E5A69" stroke-width="6"/><rect x="245" y="314" width="140" height="92" rx="0" fill="#C9E2C5" stroke="#4E5A69" stroke-width="0"/><path d="M255 380 L300 340 L340 360 L375 325" fill="none" stroke="#1F5FD6" stroke-width="4"/><path d="M400 360 C460 360 450 470 520 470" fill="none" stroke="#4E5A69" stroke-width="6"/><rect x="500" y="230" width="200" height="150" rx="10" fill="#3A4350" stroke="#4E5A69" stroke-width="6"/><rect x="512" y="242" width="176" height="126" rx="0" fill="#FFFFFF" stroke="#4E5A69" stroke-width="0"/><path d="M480 380 L720 380 L740 410 L460 410 Z" fill="#D6DDE6" stroke="#4E5A69" stroke-width="4"/><rect x="525" y="270" width="150" height="20" rx="6" fill="#EEF2F6" stroke="#4E5A69" stroke-width="3"/><rect x="527" y="272" width="90" height="16" rx="5" fill="#1F5FD6" stroke="none" stroke-width="0"/><rect x="525" y="320" width="150" height="20" rx="6" fill="#EEF2F6" stroke="#4E5A69" stroke-width="3"/><rect x="527" y="322" width="128" height="16" rx="5" fill="#F2B45C" stroke="none" stroke-width="0"/><line x1="600" y1="280" x2="137" y2="210" stroke="#1F5FD6" stroke-width="4" stroke-linecap="round"/><circle cx="600" cy="280" r="8" fill="#fff" stroke="#1F5FD6" stroke-width="4"/><circle cx="137" cy="210" r="23" fill="#fff" stroke="#1F5FD6" stroke-width="4"/><text x="137" y="218" text-anchor="middle" font-family="Inter, 'Segoe UI', Roboto, Helvetica, Arial, sans-serif" font-size="23" font-weight="800" fill="#1F5FD6">1</text><line x1="600" y1="330" x2="137" y2="313" stroke="#1F5FD6" stroke-width="4" stroke-linecap="round"/><circle cx="600" cy="330" r="8" fill="#fff" stroke="#1F5FD6" stroke-width="4"/><circle cx="137" cy="313" r="23" fill="#fff" stroke="#1F5FD6" stroke-width="4"/><text x="137" y="321" text-anchor="middle" font-family="Inter, 'Segoe UI', Roboto, Helvetica, Arial, sans-serif" font-size="23" font-weight="800" fill="#1F5FD6">2</text><line x1="315" y1="360" x2="137" y2="457" stroke="#1F5FD6" stroke-width="4" stroke-linecap="round"/><circle cx="315" cy="360" r="8" fill="#fff" stroke="#1F5FD6" stroke-width="4"/><circle cx="137" cy="457" r="23" fill="#fff" stroke="#1F5FD6" stroke-width="4"/><text x="137" y="465" text-anchor="middle" font-family="Inter, 'Segoe UI', Roboto, Helvetica, Arial, sans-serif" font-size="23" font-weight="800" fill="#1F5FD6">3</text><line x1="455" y1="410" x2="137" y2="521" stroke="#1F5FD6" stroke-width="4" stroke-linecap="round"/><circle cx="455" cy="410" r="8" fill="#fff" stroke="#1F5FD6" stroke-width="4"/><circle cx="137" cy="521" r="23" fill="#fff" stroke="#1F5FD6" stroke-width="4"/><text x="137" y="529" text-anchor="middle" font-family="Inter, 'Segoe UI', Roboto, Helvetica, Arial, sans-serif" font-size="23" font-weight="800" fill="#1F5FD6">4</text></svg>
