<svg xmlns="http://www.w3.org/2000/svg" viewBox="92 125 620 520" width="620" height="520"><title>Schéma de principe : Nettoyer les filtres d'une hotte qui aspire mal</title><rect x="410" y="150" width="100" height="120" rx="0" fill="#D6DDE6" stroke="#4E5A69" stroke-width="5"/><path d="M300 270 L620 270 L690 330 L230 330 Z" fill="#EEF2F6" stroke="#4E5A69" stroke-width="6"/><rect x="230" y="330" width="460" height="180" rx="10" fill="#D6DDE6" stroke="#4E5A69" stroke-width="6"/><rect x="250" y="345" width="200" height="150" rx="6" fill="#B8C2CE" stroke="#4E5A69" stroke-width="4"/><line x1="266" y1="349" x2="266" y2="491" stroke="#98A4B2" stroke-width="2" stroke-linecap="round"/><line x1="282" y1="349" x2="282" y2="491" stroke="#98A4B2" stroke-width="2" stroke-linecap="round"/><line x1="298" y1="349" x2="298" y2="491" stroke="#98A4B2" stroke-width="2" stroke-linecap="round"/><line x1="314" y1="349" x2="314" y2="491" stroke="#98A4B2" stroke-width="2" stroke-linecap="round"/><line x1="330" y1="349" x2="330" y2="491" stroke="#98A4B2" stroke-width="2" stroke-linecap="round"/><line x1="346" y1="349" x2="346" y2="491" stroke="#98A4B2" stroke-width="2" stroke-linecap="round"/><line x1="362" y1="349" x2="362" y2="491" stroke="#98A4B2" stroke-width="2" stroke-linecap="round"/><line x1="378" y1="349" x2="378" y2="491" stroke="#98A4B2" stroke-width="2" stroke-linecap="round"/><line x1="394" y1="349" x2="394" y2="491" stroke="#98A4B2" stroke-width="2" stroke-linecap="round"/><line x1="410" y1="349" x2="410" y2="491" stroke="#98A4B2" stroke-width="2" stroke-linecap="round"/><line x1="426" y1="349" x2="426" y2="491" stroke="#98A4B2" stroke-width="2" stroke-linecap="round"/><line x1="254" y1="361" x2="446" y2="361" stroke="#98A4B2" stroke-width="2" stroke-linecap="round"/><line x1="254" y1="377" x2="446" y2="377" stroke="#98A4B2" stroke-width="2" stroke-linecap="round"/><line x1="254" y1="393" x2="446" y2="393" stroke="#98A4B2" stroke-width="2" stroke-linecap="round"/><line x1="254" y1="409" x2="446" y2="409" stroke="#98A4B2" stroke-width="2" stroke-linecap="round"/><line x1="254" y1="425" x2="446" y2="425" stroke="#98A4B2" stroke-width="2" stroke-linecap="round"/><line x1="254" y1="441" x2="446" y2="441" stroke="#98A4B2" stroke-width="2" stroke-linecap="round"/><line x1="254" y1="457" x2="446" y2="457" stroke="#98A4B2" stroke-width="2" stroke-linecap="round"/><line x1="254" y1="473" x2="446" y2="473" stroke="#98A4B2" stroke-width="2" stroke-linecap="round"/><rect x="325" y="485" width="50" height="16" rx="5" fill="#3A4350" stroke="#4E5A69" stroke-width="0"/><rect x="470" y="345" width="200" height="150" rx="6" fill="#B8C2CE" stroke="#4E5A69" stroke-width="4"/><line x1="486" y1="349" x2="486" y2="491" stroke="#98A4B2" stroke-width="2" stroke-linecap="round"/><line x1="502" y1="349" x2="502" y2="491" stroke="#98A4B2" stroke-width="2" stroke-linecap="round"/><line x1="518" y1="349" x2="518" y2="491" stroke="#98A4B2" stroke-width="2" stroke-linecap="round"/><line x1="534" y1="349" x2="534" y2="491" stroke="#98A4B2" stroke-width="2" stroke-linecap="round"/><line x1="550" y1="349" x2="550" y2="491" stroke="#98A4B2" stroke-width="2" stroke-linecap="round"/><line x1="566" y1="349" x2="566" y2="491" stroke="#98A4B2" stroke-width="2" stroke-linecap="round"/><line x1="582" y1="349" x2="582" y2="491" stroke="#98A4B2" stroke-width="2" stroke-linecap="round"/><line x1="598" y1="349" x2="598" y2="491" stroke="#98A4B2" stroke-width="2" stroke-linecap="round"/><line x1="614" y1="349" x2="614" y2="491" stroke="#98A4B2" stroke-width="2" stroke-linecap="round"/><line x1="630" y1="349" x2="630" y2="491" stroke="#98A4B2" stroke-width="2" stroke-linecap="round"/><line x1="646" y1="349" x2="646" y2="491" stroke="#98A4B2" stroke-width="2" stroke-linecap="round"/><line x1="474" y1="361" x2="666" y2="361" stroke="#98A4B2" stroke-width="2" stroke-linecap="round"/><line x1="474" y1="377" x2="666" y2="377" stroke="#98A4B2" stroke-width="2" stroke-linecap="round"/><line x1="474" y1="393" x2="666" y2="393" stroke="#98A4B2" stroke-width="2" stroke-linecap="round"/><line x1="474" y1="409" x2="666" y2="409" stroke="#98A4B2" stroke-width="2" stroke-linecap="round"/><line x1="474" y1="425" x2="666" y2="425" stroke="#98A4B2" stroke-width="2" stroke-linecap="round"/><line x1="474" y1="441" x2="666" y2="441" stroke="#98A4B2" stroke-width="2" stroke-linecap="round"/><line x1="474" y1="457" x2="666" y2="457" stroke="#98A4B2" stroke-width="2" stroke-linecap="round"/><line x1="474" y1="473" x2="666" y2="473" stroke="#98A4B2" stroke-width="2" stroke-linecap="round"/><rect x="545" y="485" width="50" height="16" rx="5" fill="#3A4350" stroke="#4E5A69" stroke-width="0"/><ellipse cx="450" cy="575" rx="80" ry="26" fill="#3A4350" stroke="#4E5A69" stroke-width="6"/><ellipse cx="450" cy="575" rx="40" ry="12" fill="#596372" stroke="#4E5A69" stroke-width="3"/><line x1="450" y1="545" x2="450" y2="526.2" stroke="#1F5FD6" stroke-width="5" stroke-linecap="round"/><polygon points="450,515 443.9,527.6 456.1,527.6" fill="#1F5FD6" stroke="#1F5FD6" stroke-width="2"/><line x1="350" y1="400" x2="137" y2="170" stroke="#1F5FD6" stroke-width="4" stroke-linecap="round"/><circle cx="350" cy="400" r="8" fill="#fff" stroke="#1F5FD6" stroke-width="4"/><circle cx="137" cy="170" r="23" fill="#fff" stroke="#1F5FD6" stroke-width="4"/><text x="137" y="178" text-anchor="middle" font-family="Inter, 'Segoe UI', Roboto, Helvetica, Arial, sans-serif" font-size="23" font-weight="800" fill="#1F5FD6">1</text><line x1="350" y1="493" x2="137" y2="385" stroke="#1F5FD6" stroke-width="4" stroke-linecap="round"/><circle cx="350" cy="493" r="8" fill="#fff" stroke="#1F5FD6" stroke-width="4"/><circle cx="137" cy="385" r="23" fill="#fff" stroke="#1F5FD6" stroke-width="4"/><text x="137" y="393" text-anchor="middle" font-family="Inter, 'Segoe UI', Roboto, Helvetica, Arial, sans-serif" font-size="23" font-weight="800" fill="#1F5FD6">2</text><line x1="490" y1="575" x2="137" y2="600" stroke="#1F5FD6" stroke-width="4" stroke-linecap="round"/><circle cx="490" cy="575" r="8" fill="#fff" stroke="#1F5FD6" stroke-width="4"/><circle cx="137" cy="600" r="23" fill="#fff" stroke="#1F5FD6" stroke-width="4"/><text x="137" y="608" text-anchor="middle" font-family="Inter, 'Segoe UI', Roboto, Helvetica, Arial, sans-serif" font-size="23" font-weight="800" fill="#1F5FD6">3</text></svg>
