<svg xmlns="http://www.w3.org/2000/svg" viewBox="82 135 600 510" width="600" height="510"><title>Schéma de principe : Changer la pile d'une clé de voiture</title><rect x="220" y="200" width="190" height="320" rx="70" fill="#D6DDE6" stroke="#4E5A69" stroke-width="6"/><circle cx="315" cy="300" r="26" fill="#3A4350" stroke="#4E5A69" stroke-width="6"/><circle cx="315" cy="380" r="26" fill="#3A4350" stroke="#4E5A69" stroke-width="6"/><rect x="470" y="200" width="190" height="320" rx="70" fill="#D6DDE6" stroke="#4E5A69" stroke-width="6"/><rect x="500" y="250" width="130" height="220" rx="18" fill="#BFD8C8" stroke="#2F8A5B" stroke-width="4"/><circle cx="565" cy="360" r="62" fill="#3A4350" stroke="#4E5A69" stroke-width="4"/><circle cx="565" cy="360" r="52" fill="#B8C2CE" stroke="#4E5A69" stroke-width="4"/><line x1="549" y1="360" x2="581" y2="360" stroke="#4E5A69" stroke-width="6" stroke-linecap="round"/><line x1="565" y1="344" x2="565" y2="376" stroke="#4E5A69" stroke-width="6" stroke-linecap="round"/><text x="565" y="448" text-anchor="middle" font-family="Inter,Arial" font-size="20" font-weight="700" fill="#4E5A69">CR2032</text><rect x="300" y="508" width="30" height="12" rx="3" fill="#3A4350" stroke="#4E5A69" stroke-width="2"/><path d="M315 512 L345 600" fill="none" stroke="#B8C2CE" stroke-width="12"/><rect x="328" y="580" width="34" height="40" rx="6" fill="#F2B45C" stroke="#B86A0A" stroke-width="4"/><line x1="300" y1="230" x2="127" y2="180" stroke="#1F5FD6" stroke-width="4" stroke-linecap="round"/><circle cx="300" cy="230" r="8" fill="#fff" stroke="#1F5FD6" stroke-width="4"/><circle cx="127" cy="180" r="23" fill="#fff" stroke="#1F5FD6" stroke-width="4"/><text x="127" y="188" text-anchor="middle" font-family="Inter, 'Segoe UI', Roboto, Helvetica, Arial, sans-serif" font-size="23" font-weight="800" fill="#1F5FD6">1</text><line x1="590" y1="330" x2="127" y2="313" stroke="#1F5FD6" stroke-width="4" stroke-linecap="round"/><circle cx="590" cy="330" r="8" fill="#fff" stroke="#1F5FD6" stroke-width="4"/><circle cx="127" cy="313" r="23" fill="#fff" stroke="#1F5FD6" stroke-width="4"/><text x="127" y="321" text-anchor="middle" font-family="Inter, 'Segoe UI', Roboto, Helvetica, Arial, sans-serif" font-size="23" font-weight="800" fill="#1F5FD6">2</text><line x1="520" y1="395" x2="127" y2="457" stroke="#1F5FD6" stroke-width="4" stroke-linecap="round"/><circle cx="520" cy="395" r="8" fill="#fff" stroke="#1F5FD6" stroke-width="4"/><circle cx="127" cy="457" r="23" fill="#fff" stroke="#1F5FD6" stroke-width="4"/><text x="127" y="465" text-anchor="middle" font-family="Inter, 'Segoe UI', Roboto, Helvetica, Arial, sans-serif" font-size="23" font-weight="800" fill="#1F5FD6">3</text><line x1="315" y1="514" x2="127" y2="600" stroke="#1F5FD6" stroke-width="4" stroke-linecap="round"/><circle cx="315" cy="514" r="8" fill="#fff" stroke="#1F5FD6" stroke-width="4"/><circle cx="127" cy="600" r="23" fill="#fff" stroke="#1F5FD6" stroke-width="4"/><text x="127" y="608" text-anchor="middle" font-family="Inter, 'Segoe UI', Roboto, Helvetica, Arial, sans-serif" font-size="23" font-weight="800" fill="#1F5FD6">4</text></svg>
